<?xml version="1.0" encoding="UTF-8" standalone="no"?>
<!-- Created with Inkscape (http://www.inkscape.org/) -->

<svg
   xmlns:dc="http://purl.org/dc/elements/1.1/"
   xmlns:cc="http://creativecommons.org/ns#"
   xmlns:rdf="http://www.w3.org/1999/02/22-rdf-syntax-ns#"
   xmlns:svg="http://www.w3.org/2000/svg"
   xmlns="http://www.w3.org/2000/svg"
   xmlns:xlink="http://www.w3.org/1999/xlink"
   xmlns:sodipodi="http://sodipodi.sourceforge.net/DTD/sodipodi-0.dtd"
   xmlns:inkscape="http://www.inkscape.org/namespaces/inkscape"
   width="79.374992mm"
   height="79.375mm"
   viewBox="0 0 79.374992 79.375"
   version="1.1"
   id="svg2461"
   inkscape:version="0.92.4 (5da689c313, 2019-01-14)"
   sodipodi:docname="Red_Star_Ponty_FC_logo.svg">
  <defs
     id="defs2455" />
  <sodipodi:namedview
     id="base"
     pagecolor="#ffffff"
     bordercolor="#666666"
     borderopacity="1.0"
     inkscape:pageopacity="0.0"
     inkscape:pageshadow="2"
     inkscape:zoom="0.70000001"
     inkscape:cx="324.17913"
     inkscape:cy="-85.695755"
     inkscape:document-units="mm"
     inkscape:current-layer="layer2"
     showgrid="false"
     inkscape:window-width="1866"
     inkscape:window-height="1016"
     inkscape:window-x="54"
     inkscape:window-y="27"
     inkscape:window-maximized="1" />
  <metadata
     id="metadata2458">
    <rdf:RDF>
      <cc:Work
         rdf:about="">
        <dc:format>image/svg+xml</dc:format>
        <dc:type
           rdf:resource="http://purl.org/dc/dcmitype/StillImage" />
        <dc:title />
      </cc:Work>
    </rdf:RDF>
  </metadata>
  <g
     inkscape:groupmode="layer"
     id="layer2"
     inkscape:label="Inside Circle">
    <ellipse
       style="fill:#ffffff;stroke-width:0.2848767"
       id="path147"
       cx="40.123207"
       cy="38.233601"
       rx="32.551712"
       ry="32.08231"
       transform="matrix(0.99972067,0.0236344,-0.02716748,0.9996309,0,0)"
       inkscape:export-filename="/home/keo7/Projects/fm20-red-star-pontypridd/logos/redstarponty/small/2082082528.png"
       inkscape:export-xdpi="6.5"
       inkscape:export-ydpi="6.5" />
  </g>
  <g
     inkscape:groupmode="layer"
     id="layer8"
     inkscape:label="Bridge">
    <g
       id="g261"
       transform="matrix(0.76569165,0,0,1.0594976,-120.02109,-64.28101)"
       style="display:inline;opacity:1"
       inkscape:export-filename="/home/keo7/Projects/fm20-red-star-pontypridd/logos/redstarponty/small/2082082528.png"
       inkscape:export-xdpi="6.5"
       inkscape:export-ydpi="6.5">
      <path
         sodipodi:nodetypes="cccccccccccccccccsccccscccsccccccsccc"
         style="fill:#2b0000;stroke-width:0.04415744"
         inkscape:connector-curvature="0"
         id="path3778"
         d="m 209.14028,107.31133 c -0.0696,-0.0134 -0.14347,-0.0359 -0.21302,-0.0359 -2.64761,0.0314 -5.28652,0.13456 -7.92543,0.36778 -2.79542,0.24668 -5.57345,0.61446 -8.33843,1.12128 -3.3432,0.60997 -6.63858,1.41729 -9.88613,2.43989 -5.20825,1.63706 -10.21219,3.77645 -14.90744,6.63795 -0.34345,0.2108 -0.69125,0.41711 -1.06078,0.63688 -0.004,-0.0987 -0.013,-0.15698 -0.013,-0.21528 -0.0174,-4.89325 -0.0348,-9.78649 -0.0609,-14.67973 0,-0.17941 0.0696,-0.23771 0.21302,-0.28705 2.12156,-0.69967 4.23009,-1.4442 6.36469,-2.09902 3.55188,-1.0854 7.15158,-1.964472 10.79908,-2.646212 2.21721,-0.41711 4.44312,-0.79835 6.6777,-1.11231 2.16939,-0.30498 4.34747,-0.54269 6.52555,-0.74004 2.02157,-0.18388 4.04748,-0.30947 6.07775,-0.40814 1.91723,-0.0942 3.83881,-0.11661 5.76039,-0.17043 l -0.009,-0.009 c 0.004,0.0538 0.0131,0.10316 0.0131,0.15698 v 10.818062 c 0.004,0.0718 -0.0131,0.148 -0.0174,0.22425 -0.004,0.004 0,0 0,0 z m -35.7883,4.69589 c 2.00852,0 3.65187,-1.69088 3.64752,-3.76299 0,-2.06763 -1.62161,-3.74506 -3.62579,-3.74954 -2.02591,-0.009 -3.65187,1.655 -3.65622,3.74057 -0.004,2.08557 1.62161,3.77196 3.63449,3.77196 z m 12.65545,-7.51253 c -0.004,-1.54736 -1.23468,-2.79871 -2.7302,-2.78077 -1.50422,0.018 -2.69542,1.27378 -2.68673,2.82562 0.0131,1.5339 1.23034,2.77179 2.71716,2.7673 1.49987,-0.009 2.70412,-1.26031 2.69977,-2.81215 z m 7.17332,-1.8658 c 0.004,-1.03157 -0.80863,-1.87029 -1.81725,-1.87029 -0.99556,0 -1.79984,0.82975 -1.80854,1.85234 -0.004,1.02709 0.81733,1.87029 1.81724,1.87029 0.99557,-0.004 1.8042,-0.83423 1.80855,-1.85234 z"
         class="st0" />
      <path
         sodipodi:nodetypes="cccccccccccccccccsccccscccsccccccsccc"
         style="fill:#2b0000;stroke-width:0.04415744"
         inkscape:connector-curvature="0"
         id="path3778-6"
         d="m 208.61111,107.31133 c 0.0696,-0.0134 0.14347,-0.0359 0.21302,-0.0359 2.64761,0.0314 5.28652,0.13456 7.92543,0.36778 2.79542,0.24668 5.57345,0.61446 8.33843,1.12128 3.3432,0.60997 6.63858,1.41729 9.88613,2.43989 5.20825,1.63706 10.21219,3.77645 14.90744,6.63795 0.34345,0.2108 0.69125,0.41711 1.06078,0.63688 0.004,-0.0987 0.013,-0.15698 0.013,-0.21528 0.0174,-4.89325 0.0348,-9.78649 0.0609,-14.67973 0,-0.17941 -0.0696,-0.23771 -0.21302,-0.28705 -2.12156,-0.69967 -4.23009,-1.4442 -6.36469,-2.09902 -3.55188,-1.0854 -7.15158,-1.96447 -10.79908,-2.64621 -2.21721,-0.41711 -4.44312,-0.79835 -6.6777,-1.11231 -2.16939,-0.30498 -4.34747,-0.54269 -6.52555,-0.74004 -2.02157,-0.18388 -4.04748,-0.30947 -6.07775,-0.40814 -1.91723,-0.0942 -3.83881,-0.11661 -5.76039,-0.17043 l 0.009,-0.009 c -0.004,0.0538 -0.0131,0.10316 -0.0131,0.15698 v 10.81806 c -0.004,0.0718 0.0131,0.148 0.0174,0.22425 0.004,0.004 0,0 0,0 z m 35.7883,4.69589 c -2.00852,0 -3.65187,-1.69088 -3.64752,-3.76299 0,-2.06763 1.62161,-3.74506 3.62579,-3.74954 2.02591,-0.009 3.65187,1.655 3.65622,3.74057 0.004,2.08557 -1.62161,3.77196 -3.63449,3.77196 z m -12.65545,-7.51253 c 0.004,-1.54736 1.23468,-2.79871 2.7302,-2.78077 1.50422,0.018 2.69542,1.27378 2.68673,2.82562 -0.0131,1.5339 -1.23034,2.77179 -2.71716,2.7673 -1.49987,-0.009 -2.70412,-1.26031 -2.69977,-2.81215 z m -7.17332,-1.8658 c -0.004,-1.03157 0.80863,-1.87029 1.81725,-1.87029 0.99556,0 1.79984,0.82975 1.80854,1.85234 0.004,1.02709 -0.81733,1.87029 -1.81724,1.87029 -0.99557,-0.004 -1.8042,-0.83423 -1.80855,-1.85234 z"
         class="st0" />
    </g>
    <text
       xml:space="preserve"
       style="font-style:normal;font-weight:normal;font-size:10.58333302px;line-height:1.25;font-family:sans-serif;letter-spacing:0px;word-spacing:0px;fill:#000000;fill-opacity:1;stroke:none;stroke-width:0.26458332"
       x="2.0045214"
       y="44.763599"
       id="text4841"><tspan
         sodipodi:role="line"
         id="tspan4839"
         x="2.0045214"
         y="54.127369"
         style="stroke-width:0.26458332" /></text>
  </g>
  <g
     inkscape:groupmode="layer"
     id="layer4"
     inkscape:label="Circle"
     style="display:inline;opacity:1">
    <ellipse
       style="display:inline;opacity:1;fill:none;stroke:#005300;stroke-width:8.39277077;stroke-miterlimit:4;stroke-dasharray:none;stroke-opacity:1"
       id="path326"
       cx="39.533978"
       cy="39.573746"
       rx="34.872696"
       ry="34.872692"
       inkscape:export-filename="/home/keo7/Projects/fm20-red-star-pontypridd/logos/redstarponty/small/2082082528.png"
       inkscape:export-xdpi="6.5"
       inkscape:export-ydpi="6.5" />
  </g>
  <g
     inkscape:groupmode="layer"
     id="layer5"
     inkscape:label="Star"
     style="display:inline;opacity:1">
    <path
       transform="translate(-76.230239,-68.06738)"
       inkscape:connector-curvature="0"
       style="fill:#b21e28;stroke-width:1.05551839"
       d="m 114.97261,76.947548 7.80914,20.614075 22.04307,-0.159911 -17.19123,13.795908 6.96245,20.91423 -18.43273,-12.08594 -17.739322,13.08513 5.798962,-21.26644 -17.926462,-12.826683 22.017282,-1.057859 z"
       id="polygon2381"
       inkscape:export-filename="/home/keo7/Projects/fm20-red-star-pontypridd/logos/redstarponty/small/2082082528.png"
       inkscape:export-xdpi="6.5"
       inkscape:export-ydpi="6.5" />
  </g>
  <g
     inkscape:label="Layer 1"
     inkscape:groupmode="layer"
     id="layer1"
     transform="translate(-76.230238,-68.06738)"
     style="display:inline;opacity:1" />
  <g
     inkscape:groupmode="layer"
     id="layer3"
     inkscape:label="Text"
     style="display:inline;opacity:1"
     transform="translate(-76.230238,-68.06738)">
    <text
       y="-57.201041"
       x="-86.497687"
       transform="matrix(1.0298069,-0.14670807,0.14317018,1.0230467,-18.696491,14.124146)"
       id="text117"
       style="font-style:normal;font-weight:normal;font-size:10.81632137px;line-height:1.25;font-family:sans-serif;letter-spacing:0px;word-spacing:0px;fill:#000000;fill-opacity:1;stroke:none;stroke-width:0.26747194"
       xml:space="preserve"><tspan
         dx="0.061320879"
         style="font-weight:bold;font-size:7.93196917px;letter-spacing:0.01892856px;word-spacing:0.01622448px;fill:#ffffff;stroke-width:0.26747194"
         id="tspan115">RED STAR PONTYPRIDD</tspan></text>
    <text
       xml:space="preserve"
       style="font-style:normal;font-weight:normal;font-size:10.58333302px;line-height:1.25;font-family:sans-serif;letter-spacing:0px;word-spacing:0px;fill:#000000;fill-opacity:1;stroke:none;stroke-width:0.26458332"
       id="text4845"
       x="76.572723"
       y="65.347397"
       transform="matrix(-0.93450282,-0.09093857,0.08352995,-1.0191569,149.15112,155.35598)"
       inkscape:export-filename="/home/keo7/Projects/fm20-red-star-pontypridd/logos/redstarponty/small/2082082528.png"
       inkscape:export-xdpi="6.5"
       inkscape:export-ydpi="6.5"><textPath
         xlink:href="#path326"
         id="textPath4847"><tspan
   style="font-weight:bold;font-size:7.76111126px;letter-spacing:0.03175px;fill:#ffffff;stroke-width:0.26458332"
   id="tspan4843">RED STAR PONTYPRIDD</tspan></textPath></text>
  </g>
</svg>
